<svg width="50" height="50" viewBox="0 0 50 50" fill="none" xmlns="http://www.w3.org/2000/svg">
<g clip-path="url(#clip0_1_842)">
<path d="M45 0H5C2.23858 0 0 2.19468 0 4.90196V45.098C0 47.8053 2.23858 50 5 50H45C47.7614 50 50 47.8053 50 45.098V4.90196C50 2.19468 47.7614 0 45 0Z" fill="white"/>
</g>
<path d="M24.216 21.3875C24.4613 21.0259 24.7299 20.9799 24.9478 20.9799C25.1656 20.9799 25.5286 21.0259 25.774 21.3875C27.7079 24.0437 30.9 29.335 33.2547 33.2381C34.7902 35.7835 35.9697 37.7385 36.2116 37.9873C37.12 38.9213 38.3657 38.3392 39.0896 37.2798C39.8023 36.2368 40.0001 35.5045 40.0001 34.7232C40.0001 34.191 29.6753 14.9888 28.6355 13.3905C27.6356 11.8532 27.3099 11.4648 25.5984 11.4648H24.3177C22.6113 11.4648 22.3647 11.8532 21.3647 13.3905C20.325 14.9888 10.0001 34.191 10.0001 34.7232C10.0001 35.5045 10.198 36.2368 10.9106 37.2798C11.6345 38.3392 12.8803 38.9213 13.7886 37.9873C14.0306 37.7385 15.21 35.7835 16.7456 33.2381C19.1003 29.335 22.2821 24.0437 24.216 21.3875Z" fill="#000020"/>
<defs>
<clipPath id="clip0_1_842">
<rect width="50" height="50" fill="white"/>
</clipPath>
</defs>
</svg>
